<svg width="53" height="36" viewBox="0 0 53 36" fill="none" xmlns="http://www.w3.org/2000/svg">
<g id="software">
<path id="Fill 1" fill-rule="evenodd" clip-rule="evenodd" d="M3.70583 30.4056H49.4537V2.5922C49.4537 1.71644 48.7421 1.00405 47.8676 1.00405H5.29196C4.41732 1.00405 3.70583 1.71644 3.70583 2.5922V30.4056ZM49.9551 31.4096H3.20448C2.92759 31.4096 2.70312 31.1848 2.70312 30.9076V2.5922C2.70312 1.16282 3.8644 6.10352e-05 5.29196 6.10352e-05H47.8676C49.295 6.10352e-05 50.4564 1.16282 50.4564 2.5922V30.9076C50.4564 31.1848 50.2319 31.4096 49.9551 31.4096Z" fill="#481AE7"/>
<path id="Fill 3" fill-rule="evenodd" clip-rule="evenodd" d="M7.77482 4.4941C7.57256 4.4941 7.40798 4.65875 7.40798 4.86141V26.457C7.40798 26.6595 7.57256 26.8243 7.77482 26.8243H11.5841C11.7863 26.8243 11.9508 26.6595 11.9508 26.457V4.86141C11.9508 4.65875 11.7863 4.4941 11.5841 4.4941H7.77482ZM11.5841 27.8283H7.77482C7.01979 27.8283 6.40527 27.2131 6.40527 26.457V4.86141C6.40527 4.10527 7.01979 3.49011 7.77482 3.49011H11.5841C12.3391 3.49011 12.9535 4.10527 12.9535 4.86141V26.457C12.9535 27.2131 12.3391 27.8283 11.5841 27.8283Z" fill="#481AE7"/>
<path id="Fill 5" fill-rule="evenodd" clip-rule="evenodd" d="M41.3806 4.52632C41.292 4.52632 41.22 4.59847 41.22 4.6871V8.8294C41.22 8.91804 41.292 8.99018 41.3806 8.99018H45.7602C45.8488 8.99018 45.9208 8.91804 45.9208 8.8294V4.6871C45.9208 4.59847 45.8488 4.52632 45.7602 4.52632H41.3806ZM45.7602 9.99416H41.3806C40.7391 9.99416 40.2173 9.47152 40.2173 8.8294V4.6871C40.2173 4.04484 40.7391 3.52234 41.3806 3.52234H45.7602C46.4017 3.52234 46.9235 4.04484 46.9235 4.6871V8.8294C46.9235 9.47152 46.4017 9.99416 45.7602 9.99416Z" fill="#481AE7"/>
<path id="Fill 7" fill-rule="evenodd" clip-rule="evenodd" d="M41.3806 13.4729C41.292 13.4729 41.22 13.5451 41.22 13.6337V17.776C41.22 17.8646 41.292 17.9368 41.3806 17.9368H45.7602C45.8488 17.9368 45.9208 17.8646 45.9208 17.776V13.6337C45.9208 13.5451 45.8488 13.4729 45.7602 13.4729H41.3806ZM45.7602 18.9408H41.3806C40.7391 18.9408 40.2173 18.4181 40.2173 17.776V13.6337C40.2173 12.9914 40.7391 12.4689 41.3806 12.4689H45.7602C46.4017 12.4689 46.9235 12.9914 46.9235 13.6337V17.776C46.9235 18.4181 46.4017 18.9408 45.7602 18.9408Z" fill="#481AE7"/>
<path id="Fill 9" fill-rule="evenodd" clip-rule="evenodd" d="M41.3806 22.7061C41.292 22.7061 41.22 22.7782 41.22 22.8669V27.0091C41.22 27.0978 41.292 27.1699 41.3806 27.1699H45.7602C45.8488 27.1699 45.9208 27.0978 45.9208 27.0091V22.8669C45.9208 22.7782 45.8488 22.7061 45.7602 22.7061H41.3806ZM45.7602 28.1739H41.3806C40.7391 28.1739 40.2173 27.6513 40.2173 27.0091V22.8669C40.2173 22.2246 40.7391 21.7021 41.3806 21.7021H45.7602C46.4017 21.7021 46.9235 22.2246 46.9235 22.8669V27.0091C46.9235 27.6513 46.4017 28.1739 45.7602 28.1739Z" fill="#481AE7"/>
<path id="Fill 11" fill-rule="evenodd" clip-rule="evenodd" d="M6.20577 34.9078H48.0506L51.2455 31.4095H1.91191L6.20577 34.9078ZM48.2714 35.9118H6.02758C5.91227 35.9118 5.80054 35.8721 5.71115 35.7992L0.184971 31.2969C0.0203845 31.163 -0.0420695 30.9396 0.0289791 30.7394C0.100028 30.5393 0.289252 30.4055 0.501395 30.4055H52.3834C52.5821 30.4055 52.762 30.5231 52.8422 30.7051C52.9223 30.8873 52.8875 31.0996 52.7534 31.2463L48.6414 35.7486C48.5463 35.8526 48.4121 35.9118 48.2714 35.9118Z" fill="#481AE7"/>
<path id="Fill 14" fill-rule="evenodd" clip-rule="evenodd" d="M22.9655 35.912C22.7575 35.912 22.5632 35.7814 22.4915 35.5735L20.9411 31.0713C20.8508 30.8091 20.9899 30.5234 21.2516 30.4331C21.5133 30.3426 21.7988 30.4818 21.8889 30.7439L23.4395 35.2462C23.5298 35.5084 23.3907 35.7941 23.129 35.8844C23.0748 35.9031 23.0197 35.912 22.9655 35.912Z" fill="#481AE7"/>
<path id="Fill 16" fill-rule="evenodd" clip-rule="evenodd" d="M30.097 35.9119C30.0338 35.9119 29.9696 35.8999 29.9075 35.8745C29.6512 35.7695 29.5283 35.4765 29.6332 35.2199L31.4708 30.7176C31.5757 30.461 31.8682 30.3381 32.1246 30.443C32.3808 30.5478 32.5037 30.8408 32.399 31.0976L30.5612 35.5997C30.4819 35.7942 30.2945 35.9119 30.097 35.9119Z" fill="#481AE7"/>
<path id="Fill 18" fill-rule="evenodd" clip-rule="evenodd" d="M22.7259 12.4689H29.9135L33.6151 9.33047L30.3495 6.48891H22.4708L19.3173 9.52395L22.7259 12.4689ZM30.0972 13.4729H22.5396C22.4193 13.4729 22.3031 13.4296 22.212 13.351L18.2456 9.92397C18.1387 9.83175 18.0757 9.69865 18.072 9.55737C18.0681 9.41624 18.124 9.27998 18.2257 9.18202L21.9215 5.62491C22.0149 5.53512 22.1394 5.48492 22.269 5.48492H30.5368C30.6577 5.48492 30.7745 5.52853 30.8657 5.60798L34.714 8.95641C34.8244 9.05251 34.8874 9.19206 34.8866 9.3385C34.8856 9.48494 34.8208 9.62378 34.7091 9.71844L30.4213 13.354C30.3307 13.4307 30.2158 13.4729 30.0972 13.4729Z" fill="#481AE7"/>
<path id="Fill 20" fill-rule="evenodd" clip-rule="evenodd" d="M22.7424 25.1941H29.9135L33.615 22.0556L30.3493 19.2141H22.4479L19.2657 21.8228L22.7424 25.1941ZM30.0971 26.1981H22.5394C22.4092 26.1981 22.2842 26.1473 22.1906 26.0566L18.1638 22.1522C18.0611 22.0525 18.0058 21.9136 18.0117 21.7706C18.0177 21.6275 18.0843 21.4938 18.195 21.403L21.9513 18.3237C22.0408 18.2501 22.153 18.2101 22.2688 18.2101H30.5367C30.6576 18.2101 30.7743 18.2537 30.8656 18.3331L34.714 21.6817C34.8243 21.7777 34.8873 21.9172 34.8864 22.0638C34.8854 22.2102 34.8207 22.3491 34.7091 22.4436L30.4211 26.0792C30.3306 26.1559 30.2157 26.1981 30.0971 26.1981Z" fill="#481AE7"/>
<path id="Fill 22" fill-rule="evenodd" clip-rule="evenodd" d="M34.3851 22.5626C34.1083 22.5626 33.8838 22.3378 33.8838 22.0606V9.33537C33.8838 9.05812 34.1083 8.83337 34.3851 8.83337C34.662 8.83337 34.8865 9.05812 34.8865 9.33537V22.0606C34.8865 22.3378 34.662 22.5626 34.3851 22.5626Z" fill="#481AE7"/>
<path id="Fill 24" fill-rule="evenodd" clip-rule="evenodd" d="M30.0971 26.1981C29.8202 26.1981 29.5957 25.9733 29.5957 25.6961V12.9709C29.5957 12.6936 29.8202 12.4689 30.0971 12.4689C30.3739 12.4689 30.5984 12.6936 30.5984 12.9709V25.6961C30.5984 25.9733 30.3739 26.1981 30.0971 26.1981Z" fill="#481AE7"/>
<path id="Fill 26" fill-rule="evenodd" clip-rule="evenodd" d="M22.5394 26.1981C22.2625 26.1981 22.0381 25.9733 22.0381 25.6961V12.9709C22.0381 12.6936 22.2625 12.4689 22.5394 12.4689C22.8163 12.4689 23.0408 12.6936 23.0408 12.9709V25.6961C23.0408 25.9733 22.8163 26.1981 22.5394 26.1981Z" fill="#481AE7"/>
<path id="Fill 28" fill-rule="evenodd" clip-rule="evenodd" d="M18.5731 22.2935C18.2962 22.2935 18.0718 22.0688 18.0718 21.7915V9.54392C18.0718 9.26668 18.2962 9.04193 18.5731 9.04193C18.85 9.04193 19.0745 9.26668 19.0745 9.54392V21.7915C19.0745 22.0688 18.85 22.2935 18.5731 22.2935Z" fill="#481AE7"/>
</g>
</svg>
